<svg aria-hidden="true" style="width:0;height:0;position:absolute;overflow:hidden" xmlns="http://www.w3.org/2000/svg"><defs><symbol id="icon-arrow-up" viewBox="0 0 32 32"><path d="M3.76 25.143 0 21.664 16 6.857l16 14.807-3.76 3.479L16 13.84 3.76 25.143z"/></symbol><symbol id="icon-arrow-down" viewBox="0 0 32 32"><path d="M3.76 6.857 0 10.336l16 14.807 16-14.807-3.76-3.479L16 18.16 3.76 6.857z"/></symbol><symbol id="icon-search" viewBox="0 0 34 32"><path d="M14.036 24c2.491 0 4.911-.793 6.873-2.251l6.17 5.861 1.985-1.885-6.17-5.861c1.535-1.864 2.37-4.163 2.371-6.531 0-5.881-5.037-10.667-11.228-10.667S2.809 7.451 2.809 13.333C2.809 19.214 7.846 24 14.037 24zm0-18.667c4.644 0 8.421 3.588 8.421 8s-3.777 8-8.421 8c-4.644 0-8.421-3.588-8.421-8s3.777-8 8.421-8z"/></symbol><symbol id="icon-calendar" viewBox="0 0 32 32"><path d="M22.667 4H28c.736 0 1.333.597 1.333 1.333v21.334c0 .736-.597 1.333-1.333 1.333H4a1.333 1.333 0 0 1-1.333-1.333V5.333C2.667 4.597 3.264 4 4 4h5.333V1.333H12V4h8V1.333h2.667V4zm4 10.667H5.333v10.666h21.334V14.667zm-6.667-8h-8v2.666H9.333V6.667h-4V12h21.334V6.667h-4v2.666H20V6.667zM8 17.333h2.667V20H8v-2.667zm6.667 0h2.666V20h-2.666v-2.667zm6.666 0H24V20h-2.667v-2.667z"/></symbol><symbol id="icon-moon" viewBox="0 0 32 32"><path fill="none" stroke="#5f6775" style="stroke:var(--color3,#5f6775)" stroke-linejoin="round" stroke-linecap="round" stroke-width="2.286" d="M28 17.053c-.584 6.134-5.71 10.893-11.947 10.893-6.627 0-11.998-5.372-11.998-11.998 0-6.237 4.759-11.363 10.845-11.944L14.948 4a9.264 9.264 0 0 0-1.827 5.546 9.333 9.333 0 0 0 14.904 7.489l-.025.018z"/></symbol><symbol id="icon-sun" viewBox="0 0 32 32"><path fill="none" stroke="#4b48db" style="stroke:var(--color4,#4b48db)" stroke-linejoin="round" stroke-linecap="round" stroke-width="2.286" d="M16 1.778v2.586m0 23.272v2.586M5.943 5.943l1.836 1.836m16.445 16.445 1.836 1.836M1.778 16h2.586m23.272 0h2.586M5.943 26.059l1.836-1.836M24.222 7.778l1.836-1.836M22.466 16a6.465 6.465 0 0 1-12.93 0v0a6.465 6.465 0 0 1 12.93 0v0z"/></symbol></defs><symbol id="icon-read" viewBox="0 0 24 24"><path d="M21 4v13h-6c-.728 0-1.412.195-2 .535V7c0-.829.335-1.577.879-2.121S15.171 4 16 4zM11 17.535A3.986 3.986 0 0 0 9 17H3V4h5c.829 0 1.577.335 2.121.879S11 6.171 11 7zM22 2h-6a4.992 4.992 0 0 0-4 2 4.992 4.992 0 0 0-4-2H2a1 1 0 0 0-1 1v15a1 1 0 0 0 1 1h7c.553 0 1.051.223 1.414.586S11 20.447 11 21a1 1 0 0 0 2 0c0-.553.223-1.051.586-1.414S14.447 19 15 19h7a1 1 0 0 0 1-1V3a1 1 0 0 0-1-1z"/></symbol><symbol id="icon-favorite" viewBox="0 0 28 28"><path d="M26 9.312c0-4.391-2.969-5.313-5.469-5.313-2.328 0-4.953 2.516-5.766 3.484-.375.453-1.156.453-1.531 0-.812-.969-3.437-3.484-5.766-3.484-2.5 0-5.469.922-5.469 5.313 0 2.859 2.891 5.516 2.922 5.547l9.078 8.75 9.063-8.734C23.109 14.828 26 12.172 26 9.312zm2 0c0 3.75-3.437 6.891-3.578 7.031l-9.734 9.375c-.187.187-.438.281-.688.281s-.5-.094-.688-.281l-9.75-9.406c-.125-.109-3.563-3.25-3.563-7 0-4.578 2.797-7.313 7.469-7.313 2.734 0 5.297 2.156 6.531 3.375 1.234-1.219 3.797-3.375 6.531-3.375 4.672 0 7.469 2.734 7.469 7.313z"/></symbol><symbol id="icon-favorite1" viewBox="0 0 28 28"><path d="M26 9.312c0-4.391-2.969-5.313-5.469-5.313-2.328 0-4.953 2.516-5.766 3.484-.375.453-1.156.453-1.531 0-.812-.969-3.437-3.484-5.766-3.484-2.5 0-5.469.922-5.469 5.313 0 2.859 2.891 5.516 2.922 5.547l9.078 8.75 9.063-8.734C23.109 14.828 26 12.172 26 9.312zm2 0c0 3.75-3.437 6.891-3.578 7.031l-9.734 9.375c-.187.187-.438.281-.688.281s-.5-.094-.688-.281l-9.75-9.406c-.125-.109-3.563-3.25-3.563-7 0-4.578 2.797-7.313 7.469-7.313 2.734 0 5.297 2.156 6.531 3.375 1.234-1.219 3.797-3.375 6.531-3.375 4.672 0 7.469 2.734 7.469 7.313z"/></symbol><symbol id="icon-location" viewBox="0 0 32 32"><path d="M16 2.001C9.928 2.008 5.008 6.928 5 12.999V13.017c0 2.486.833 4.777 2.236 6.61l-.019-.026s.3.395.348.45L16 30.001l8.439-9.953c.044-.053.345-.447.345-.447l.001-.004a10.811 10.811 0 0 0 2.216-6.583V13v.001c-.007-6.072-4.928-10.993-11-11H16zM16 17a4 4 0 0 1 0-8 4 4 0 0 1 0 8z"/></symbol><symbol id="icon-menu" viewBox="0 0 32 32"><path d="M6.4 11.734V9.6h19.2v2.134H6.4zm0 5.332h19.2v-2.133H6.4v2.133zm0 5.334h19.2v-2.134H6.4V22.4z"/></symbol><symbol id="icon-close-menu" viewBox="0 0 32 32"><path d="M23.734 10.304 22.23 8.8l-5.963 5.962L10.305 8.8l-1.504 1.504 5.962 5.962-5.962 5.963 1.504 1.504 5.962-5.963 5.963 5.963 1.504-1.504-5.963-5.963 5.963-5.962z"/></symbol><symbol id="icon-tick" viewBox="0 0 32 32"><path d="M28.779 6.389a1.062 1.062 0 0 0-.732.323L11.734 23.025l-6.713-6.713a1.067 1.067 0 1 0-1.508 1.508l.001.001 7.467 7.467c.193.193.459.312.754.312s.561-.119.754-.312L29.556 8.221a1.067 1.067 0 0 0-.744-1.832h-.033.002z"/></symbol><symbol id="icon-heart-full" viewBox="0 0 32 32"><path d="M9.332 4c-3.68 0-6.666 2.954-6.666 6.6 0 2.942 1.166 9.926 12.65 16.986.195.12.43.191.683.191s.488-.071.689-.195l-.006.003c11.484-7.06 12.65-14.044 12.65-16.986 0-3.646-2.984-6.6-6.666-6.6-3.68 0-6.666 4-6.666 4s-2.986-4-6.668-4z"/></symbol><symbol id="icon-heart-empty" viewBox="0 0 32 32"><path d="M26 9.312c0-4.391-2.969-5.313-5.469-5.313-2.328 0-4.953 2.516-5.766 3.484-.375.453-1.156.453-1.531 0-.812-.969-3.437-3.484-5.766-3.484-2.5 0-5.469.922-5.469 5.313 0 2.859 2.891 5.516 2.922 5.547l9.078 8.75 9.063-8.734C23.109 14.828 26 12.172 26 9.312zm2 0c0 3.75-3.437 6.891-3.578 7.031l-9.734 9.375c-.187.187-.438.281-.688.281s-.5-.094-.688-.281l-9.75-9.406c-.125-.109-3.563-3.25-3.563-7 0-4.578 2.797-7.313 7.469-7.313 2.734 0 5.297 2.156 6.531 3.375 1.234-1.219 3.797-3.375 6.531-3.375 4.672 0 7.469 2.734 7.469 7.313z"/></symbol><symbol id="icon-heart" viewBox="0 0 32 32"><path stroke-linejoin="round" stroke-linecap="round" stroke-width="1.778" d="M27.788 6.147a7.345 7.345 0 0 0-5.187-2.15 7.33 7.33 0 0 0-5.187 2.15L16.001 7.56l-1.413-1.413a7.333 7.333 0 0 0-10.374 0 7.333 7.333 0 0 0 0 10.374l11.787 11.787 11.787-11.787a7.345 7.345 0 0 0 2.149-5.187 7.33 7.33 0 0 0-2.149-5.187z"/></symbol><symbol id="icon-home" viewBox="0 0 32 32"><path stroke-linejoin="round" stroke-linecap="round" stroke-width="1.778" d="m4 12 12-9.333L28 12v14.667a2.668 2.668 0 0 1-2.667 2.667H6.666a2.668 2.668 0 0 1-2.667-2.667V12z"/><path stroke-linejoin="round" stroke-linecap="round" stroke-width="1.778" d="M12 29.333V16h8v13.333"/></symbol><symbol id="icon-chmyt" viewBox="0 0 64 32"><path fill="#fefefe" style="fill:var(--color1,#fefefe)" d="M0 0v19.405h12.595V32h38.298V19.405h12.595V0H0z"/><path fill="#fdd901" style="fill:var(--color2,#fdd901)" d="M40.471 28.154h6.576v-5.857h-6.576z"/><path fill="#0068ff" style="fill:var(--color3,#0068ff)" d="M40.471 22.298h6.576v-5.857h-6.576z"/><path style="fill:var(--color4,#000)" d="M3.846 15.559H15.56V3.845H3.846v11.714zm12.595 0h43.202V3.845H16.441v11.714zm23.148 12.595V16.44H16.441v11.714h23.148zm.882-11.713v11.714h6.576V16.441h-6.576zm7.017 12.595H15.559V16.441H2.964V2.964h57.56v13.477H47.929v12.595h-.441z"/><path style="fill:var(--color4,#000)" d="M23.174 10.737v.332c0 .199-.02.39-.061.572a1.124 1.124 0 0 1-.663.818c-.184.084-.42.126-.708.126-.002 0-.002 0-.002.002-.295 0-.536-.043-.722-.126s-.331-.199-.438-.343a1.245 1.245 0 0 1-.218-.506 2.87 2.87 0 0 1-.061-.604V8.403c0-.214.02-.418.061-.608.039-.191.111-.358.218-.501s.252-.257.438-.343c.186-.083.425-.126.713-.126l.005-.004c.293 0 .531.043.717.126.186.086.334.199.44.341s.179.304.22.488c.041.184.061.377.061.576v.321h-.931v-.317c0-.084-.007-.167-.018-.248s-.036-.154-.07-.221c-.034-.064-.086-.118-.152-.159s-.154-.06-.263-.06a.51.51 0 0 0-.272.062.458.458 0 0 0-.154.165c-.036.069-.059.148-.07.236s-.016.18-.016.276v2.596c0 .092.005.182.014.27s.032.167.068.236c.034.071.086.126.152.167s.157.062.275.062c.107 0 .193-.019.259-.056s.118-.086.157-.148a.65.65 0 0 0 .075-.216c.011-.081.018-.167.018-.255v-.328h.931zm2.547-3.907c0-.002.002-.004.005-.004.293 0 .531.043.718.126.186.086.331.199.438.343s.179.313.22.503c.039.193.059.394.059.606v2.605c0 .214-.02.418-.059.608-.041.193-.113.36-.22.503s-.254.257-.44.341c-.189.084-.427.126-.715.126l-.005-.002v.002c-.293 0-.531-.043-.717-.126s-.331-.199-.438-.343a1.234 1.234 0 0 1-.22-.506 2.87 2.87 0 0 1-.061-.604V8.403c0-.214.02-.418.061-.608.039-.191.114-.358.223-.501.107-.143.254-.257.44-.343.186-.083.425-.126.713-.126v.004zm0 4.91c.002 0 .007 0 .009.002s.005.002.007.002c.111-.002.198-.026.263-.066s.116-.096.15-.165c.034-.066.057-.146.068-.233s.016-.18.016-.274V8.41c0-.092-.005-.182-.014-.27s-.032-.167-.066-.236a.42.42 0 0 0-.152-.167.526.526 0 0 0-.277-.062.044.044 0 0 1-.018-.004.514.514 0 0 0-.263.066c-.066.043-.113.099-.148.165s-.057.146-.068.234c-.011.088-.016.18-.016.274v2.596c0 .092.005.182.016.27a.69.69 0 0 0 .066.236c.034.071.086.126.152.167s.159.062.275.062zm3.549-3.398.059 4.173h-.876V6.903h1.201l.783 3.41.786-3.41h1.197v5.613h-.876l.054-4.126-.758 3.425h-.801l-.767-3.473zm4.549 4.173V6.903h2.516v.848h-1.587v1.485h1.317v.848h-1.317v1.587h1.587v.844h-2.516zm7.66-1.988a.714.714 0 0 0-.032-.216.455.455 0 0 0-.264-.289.59.59 0 0 0-.232-.041h-.497v1.686h.5a.908.908 0 0 0 .227-.026.368.368 0 0 0 .168-.088.397.397 0 0 0 .102-.178c.02-.075.029-.171.027-.289v-.559zm-.066-2.277c0-.081-.009-.156-.027-.223s-.048-.122-.086-.171a.396.396 0 0 0-.152-.109.615.615 0 0 0-.232-.039h-.461v1.476h.395a.914.914 0 0 0 .27-.036c.073-.024.132-.06.177-.109s.077-.109.095-.184c.018-.073.027-.161.025-.266l-.005-.338zm.992 2.822c0 .259-.03.478-.086.66-.059.182-.148.332-.268.448s-.27.199-.45.253a2.234 2.234 0 0 1-.638.079h-1.435V6.904h1.415c.241 0 .45.028.624.086s.32.141.436.251c.116.109.2.244.257.401.057.159.084.338.084.54v.328c0 .293-.043.525-.129.696a.64.64 0 0 1-.422.341.742.742 0 0 1 .45.33c.109.171.164.39.164.653v.544zm1.888-4.173h1.251l1.017 5.617h-.94l-.152-.992h-1.11l-.15.992h-.933l1.017-5.617zm.191 3.823h.865l-.431-2.843-.434 2.843zm5.931.015v.332c0 .199-.02.39-.061.572a1.124 1.124 0 0 1-.663.818c-.184.083-.42.126-.708.126-.002 0-.002 0-.002.002-.295 0-.536-.043-.722-.126s-.331-.199-.438-.343a1.245 1.245 0 0 1-.218-.506 2.87 2.87 0 0 1-.061-.604V8.403c0-.214.02-.418.061-.608.039-.191.111-.358.218-.501s.252-.257.438-.343c.186-.083.425-.126.713-.126l.005-.004c.293 0 .531.043.718.126.186.086.334.199.44.341s.179.304.22.488c.041.184.061.377.061.576v.321h-.931v-.317c0-.084-.007-.167-.018-.248s-.036-.154-.07-.221c-.034-.064-.086-.118-.152-.159s-.154-.06-.263-.06a.51.51 0 0 0-.272.062.458.458 0 0 0-.154.165c-.036.069-.059.148-.07.236s-.016.18-.016.276v2.596c0 .092.005.182.014.27s.032.167.068.236c.034.071.086.126.152.167s.157.062.275.062c.107 0 .193-.019.259-.056s.118-.086.157-.148a.65.65 0 0 0 .075-.216c.011-.081.018-.167.018-.255v-.328h.931zm1.25 1.778V6.903h.926v2.358h.341l.872-2.358h.99l-.995 2.742 1.072 2.871h-.99l-.922-2.406h-.368v2.406h-.926zM21.076 19.527h1.251l1.017 5.617h-.94l-.152-.992h-1.11l-.15.992h-.933l1.017-5.617zm.191 3.824h.865l-.431-2.843-.434 2.843zm3.186 1.793v-5.613h.926v4.775h1.517v.838h-2.443zm3.456 0v-5.613h.929v5.613h-.929zm5.255-5.617-1.029 5.617h-1.251l-1.029-5.617h.933l.72 4.653.72-4.653h.935zm1.009 5.617v-5.613h2.516v.848h-1.587v1.485h1.317v.848h-1.317v1.587h1.587v.844h-2.516zM9.351 12.652l-2.4-3.183a1.795 1.795 0 0 1-.355-1.253 1.8 1.8 0 0 1 1.975-1.63 1.8 1.8 0 0 1 1.132.555 1.8 1.8 0 0 1 1.132-.555 1.799 1.799 0 0 1 1.394.462c.344.313.54.733.581 1.168.04.434-.075.881-.355 1.253l-2.752 3.649-.351-.466zM7.653 8.938l2.049 2.717 2.049-2.717a.922.922 0 0 0-.831-1.476.919.919 0 0 0-.653.374l-.565.772-.565-.772a.919.919 0 0 0-.653-.374.923.923 0 0 0-.831 1.476z"/></symbol><symbol id="icon-prytula" viewBox="0 0 32 32"><path fill="#001e61" style="fill:var(--color5,#001e61)" d="M13.268 0v26.571h5.463V4.8l7.805-.032V12.8h5.463V0H13.267z"/><path fill="#001e61" style="fill:var(--color5,#001e61)" d="M26.536 32.001H32V12.573h-5.464v19.429z"/><path fill="#f90" style="fill:var(--color6,#f90)" d="M18.732 12.802v5.6H32v-5.6H18.732zM5.463 26.402v-8h7.805v-5.6H0v19.2h26.537v-5.6H5.464z"/></symbol><symbol id="icon-u24" viewBox="0 0 338 32"><path d="M99.662 4.917h16.922v26.091H99.662V4.917zM29.816 15.949c0 3.727-2.055 5.481-6.447 5.481s-6.449-1.752-6.449-5.481V4.916H0v11.667c0 10.921 6.111 14.796 23.369 14.796s23.369-3.882 23.369-14.796V4.916H29.816v11.033zm88.557-1.34h14.158v16.399h16.922V14.609h14.159V4.917h-45.24v9.692zm-37.569 3.839L67.572 4.917H48.907v26.091h16.696V17.477l13.22 13.531h18.674V4.917H80.803v13.531zm213.899-8.012C294.703 3.318 288.405 0 275.137 0c-14.312 0-20.35 3.802-20.35 12.896h13.305c0-3.131 2.199-4.25 6.562-4.25 4.247 0 5.59.747 5.59 1.902 0 1.528-.485 1.528-11.19 4.024-11.85 2.795-15.529 8.313-15.529 13.643v2.795h40.215v-8.47h-23.522c1.418-1.343 5.442-1.715 14.35-3.426 5.924-1.114 10.135-3.165 10.135-8.678zM165.41 31.008h38.501v-7.783H181.59v-2.199h15.878v-6.12H181.59v-2.199h22.326v-7.79H165.41v26.091zM337.6 17.144v8.721h-6.038v5.143h-13.75v-5.143h-22.698v-8.806l16.287-16.027h20.162v16.102l6.036.009zm-19.79-8.573-8.678 8.573h8.678V8.571zm-63.732 9.402c0 8.758-5.517 13.044-16.886 13.044h-31.119v-26.1h31.119c11.369 0 16.886 4.287 16.886 13.056zm-16.511 0c0-2.946-1.642-4.325-5.07-4.325h-9.914v8.648h9.914c3.428-.009 5.07-1.388 5.07-4.323z"/></symbol></svg>