<svg aria-hidden="true" style="width:0;height:0;position:absolute;overflow:hidden" xmlns="http://www.w3.org/2000/svg"><defs><symbol id="icon-arrow-up" viewBox="0 0 32 32"><path d="M3.76 25.143 0 21.664 16 6.857l16 14.807-3.76 3.479L16 13.84 3.76 25.143z"/></symbol><symbol id="icon-arrow-down" viewBox="0 0 32 32"><path d="M3.76 6.857 0 10.336l16 14.807 16-14.807-3.76-3.479L16 18.16 3.76 6.857z"/></symbol><symbol id="icon-search" viewBox="0 0 34 32"><path d="M14.036 24c2.491 0 4.911-.793 6.873-2.251l6.17 5.861 1.985-1.885-6.17-5.861c1.535-1.864 2.37-4.163 2.371-6.531 0-5.881-5.037-10.667-11.228-10.667S2.809 7.451 2.809 13.333C2.809 19.214 7.846 24 14.037 24zm0-18.667c4.644 0 8.421 3.588 8.421 8s-3.777 8-8.421 8c-4.644 0-8.421-3.588-8.421-8s3.777-8 8.421-8z"/></symbol><symbol id="icon-calendar" viewBox="0 0 32 32"><path d="M22.667 4H28c.736 0 1.333.597 1.333 1.333v21.334c0 .736-.597 1.333-1.333 1.333H4a1.333 1.333 0 0 1-1.333-1.333V5.333C2.667 4.597 3.264 4 4 4h5.333V1.333H12V4h8V1.333h2.667V4zm4 10.667H5.333v10.666h21.334V14.667zm-6.667-8h-8v2.666H9.333V6.667h-4V12h21.334V6.667h-4v2.666H20V6.667zM8 17.333h2.667V20H8v-2.667zm6.667 0h2.666V20h-2.666v-2.667zm6.666 0H24V20h-2.667v-2.667z"/></symbol><symbol id="icon-moon" viewBox="0 0 32 32"><path fill="none" stroke="#5f6775" style="stroke:var(--color3,#5f6775)" stroke-linejoin="round" stroke-linecap="round" stroke-width="2.286" d="M28 17.053c-.584 6.134-5.71 10.893-11.947 10.893-6.627 0-11.998-5.372-11.998-11.998 0-6.237 4.759-11.363 10.845-11.944L14.948 4a9.264 9.264 0 0 0-1.827 5.546 9.333 9.333 0 0 0 14.904 7.489l-.025.018z"/></symbol><symbol id="icon-sun" viewBox="0 0 32 32"><path fill="none" stroke="#4b48db" style="stroke:var(--color4,#4b48db)" stroke-linejoin="round" stroke-linecap="round" stroke-width="2.286" d="M16 1.778v2.586m0 23.272v2.586M5.943 5.943l1.836 1.836m16.445 16.445 1.836 1.836M1.778 16h2.586m23.272 0h2.586M5.943 26.059l1.836-1.836M24.222 7.778l1.836-1.836M22.466 16a6.465 6.465 0 0 1-12.93 0v0a6.465 6.465 0 0 1 12.93 0v0z"/></symbol></defs><symbol id="icon-read" viewBox="0 0 24 24"><path d="M21 4v13h-6c-.728 0-1.412.195-2 .535V7c0-.829.335-1.577.879-2.121S15.171 4 16 4zM11 17.535A3.986 3.986 0 0 0 9 17H3V4h5c.829 0 1.577.335 2.121.879S11 6.171 11 7zM22 2h-6a4.992 4.992 0 0 0-4 2 4.992 4.992 0 0 0-4-2H2a1 1 0 0 0-1 1v15a1 1 0 0 0 1 1h7c.553 0 1.051.223 1.414.586S11 20.447 11 21a1 1 0 0 0 2 0c0-.553.223-1.051.586-1.414S14.447 19 15 19h7a1 1 0 0 0 1-1V3a1 1 0 0 0-1-1z"/></symbol><symbol id="icon-favorite" viewBox="0 0 28 28"><path d="M26 9.312c0-4.391-2.969-5.313-5.469-5.313-2.328 0-4.953 2.516-5.766 3.484-.375.453-1.156.453-1.531 0-.812-.969-3.437-3.484-5.766-3.484-2.5 0-5.469.922-5.469 5.313 0 2.859 2.891 5.516 2.922 5.547l9.078 8.75 9.063-8.734C23.109 14.828 26 12.172 26 9.312zm2 0c0 3.75-3.437 6.891-3.578 7.031l-9.734 9.375c-.187.187-.438.281-.688.281s-.5-.094-.688-.281l-9.75-9.406c-.125-.109-3.563-3.25-3.563-7 0-4.578 2.797-7.313 7.469-7.313 2.734 0 5.297 2.156 6.531 3.375 1.234-1.219 3.797-3.375 6.531-3.375 4.672 0 7.469 2.734 7.469 7.313z"/></symbol><symbol id="icon-favorite1" viewBox="0 0 28 28"><path d="M26 9.312c0-4.391-2.969-5.313-5.469-5.313-2.328 0-4.953 2.516-5.766 3.484-.375.453-1.156.453-1.531 0-.812-.969-3.437-3.484-5.766-3.484-2.5 0-5.469.922-5.469 5.313 0 2.859 2.891 5.516 2.922 5.547l9.078 8.75 9.063-8.734C23.109 14.828 26 12.172 26 9.312zm2 0c0 3.75-3.437 6.891-3.578 7.031l-9.734 9.375c-.187.187-.438.281-.688.281s-.5-.094-.688-.281l-9.75-9.406c-.125-.109-3.563-3.25-3.563-7 0-4.578 2.797-7.313 7.469-7.313 2.734 0 5.297 2.156 6.531 3.375 1.234-1.219 3.797-3.375 6.531-3.375 4.672 0 7.469 2.734 7.469 7.313z"/></symbol><symbol id="icon-location" viewBox="0 0 32 32"><path d="M16 2.001C9.928 2.008 5.008 6.928 5 12.999V13.017c0 2.486.833 4.777 2.236 6.61l-.019-.026s.3.395.348.45L16 30.001l8.439-9.953c.044-.053.345-.447.345-.447l.001-.004a10.811 10.811 0 0 0 2.216-6.583V13v.001c-.007-6.072-4.928-10.993-11-11H16zM16 17a4 4 0 0 1 0-8 4 4 0 0 1 0 8z"/></symbol><symbol id="icon-menu" viewBox="0 0 32 32"><path d="M6.4 11.734V9.6h19.2v2.134H6.4zm0 5.332h19.2v-2.133H6.4v2.133zm0 5.334h19.2v-2.134H6.4V22.4z"/></symbol><symbol id="icon-close-menu" viewBox="0 0 32 32"><path d="M23.734 10.304 22.23 8.8l-5.963 5.962L10.305 8.8l-1.504 1.504 5.962 5.962-5.962 5.963 1.504 1.504 5.962-5.963 5.963 5.963 1.504-1.504-5.963-5.963 5.963-5.962z"/></symbol><symbol id="icon-tick" viewBox="0 0 32 32"><path d="M28.779 6.389a1.062 1.062 0 0 0-.732.323L11.734 23.025l-6.713-6.713a1.067 1.067 0 1 0-1.508 1.508l.001.001 7.467 7.467c.193.193.459.312.754.312s.561-.119.754-.312L29.556 8.221a1.067 1.067 0 0 0-.744-1.832h-.033.002z"/></symbol><symbol id="icon-heart-full" viewBox="0 0 32 32"><path d="M9.332 4c-3.68 0-6.666 2.954-6.666 6.6 0 2.942 1.166 9.926 12.65 16.986.195.12.43.191.683.191s.488-.071.689-.195l-.006.003c11.484-7.06 12.65-14.044 12.65-16.986 0-3.646-2.984-6.6-6.666-6.6-3.68 0-6.666 4-6.666 4s-2.986-4-6.668-4z"/></symbol><symbol id="icon-heart-empty" viewBox="0 0 32 32"><path d="M26 9.312c0-4.391-2.969-5.313-5.469-5.313-2.328 0-4.953 2.516-5.766 3.484-.375.453-1.156.453-1.531 0-.812-.969-3.437-3.484-5.766-3.484-2.5 0-5.469.922-5.469 5.313 0 2.859 2.891 5.516 2.922 5.547l9.078 8.75 9.063-8.734C23.109 14.828 26 12.172 26 9.312zm2 0c0 3.75-3.437 6.891-3.578 7.031l-9.734 9.375c-.187.187-.438.281-.688.281s-.5-.094-.688-.281l-9.75-9.406c-.125-.109-3.563-3.25-3.563-7 0-4.578 2.797-7.313 7.469-7.313 2.734 0 5.297 2.156 6.531 3.375 1.234-1.219 3.797-3.375 6.531-3.375 4.672 0 7.469 2.734 7.469 7.313z"/></symbol><symbol id="icon-heart" viewBox="0 0 32 32"><path stroke-linejoin="round" stroke-linecap="round" stroke-width="1.778" d="M27.788 6.147a7.345 7.345 0 0 0-5.187-2.15 7.33 7.33 0 0 0-5.187 2.15L16.001 7.56l-1.413-1.413a7.333 7.333 0 0 0-10.374 0 7.333 7.333 0 0 0 0 10.374l11.787 11.787 11.787-11.787a7.345 7.345 0 0 0 2.149-5.187 7.33 7.33 0 0 0-2.149-5.187z"/></symbol><symbol id="icon-home" viewBox="0 0 32 32"><path stroke-linejoin="round" stroke-linecap="round" stroke-width="1.778" d="m4 12 12-9.333L28 12v14.667a2.668 2.668 0 0 1-2.667 2.667H6.666a2.668 2.668 0 0 1-2.667-2.667V12z"/><path stroke-linejoin="round" stroke-linecap="round" stroke-width="1.778" d="M12 29.333V16h8v13.333"/></symbol></svg>