<svg aria-hidden="true" style="position: absolute; width: 0; height: 0; overflow: hidden;" version="1.1" xmlns="http://www.w3.org/2000/svg" xmlns:xlink="http://www.w3.org/1999/xlink">
<defs>
<symbol id="icon-arrow-up" viewBox="0 0 32 32">
<path  d="M3.76 25.143l-3.76-3.479 16-14.807 16 14.807-3.76 3.479-12.24-11.303-12.24 11.303z"></path>
</symbol>
<symbol id="icon-arrow-down" viewBox="0 0 32 32">
<path  d="M3.76 6.857l-3.76 3.479 16 14.807 16-14.807-3.76-3.479-12.24 11.303-12.24-11.303z"></path>
</symbol>
<symbol id="icon-search" viewBox="0 0 34 32">
<path d="M14.036 24c2.491-0 4.911-0.793 6.873-2.251l6.17 5.861 1.985-1.885-6.17-5.861c1.535-1.864 2.37-4.163 2.371-6.531 0-5.881-5.037-10.667-11.228-10.667s-11.228 4.785-11.228 10.667c0 5.881 5.037 10.667 11.228 10.667zM14.036 5.333c4.644 0 8.421 3.588 8.421 8s-3.777 8-8.421 8c-4.644 0-8.421-3.588-8.421-8s3.777-8 8.421-8z"></path>
</symbol>
<symbol id="icon-calendar" viewBox="0 0 32 32">
<path  d="M22.667 4h5.333c0.736 0 1.333 0.597 1.333 1.333v0 21.334c0 0.736-0.597 1.333-1.333 1.333v0h-24c-0.736 0-1.333-0.597-1.333-1.333v0-21.334c0-0.736 0.597-1.333 1.333-1.333v0h5.333v-2.667h2.667v2.667h8v-2.667h2.667v2.667zM26.667 14.667h-21.334v10.666h21.334v-10.666zM20 6.667h-8v2.666h-2.667v-2.666h-4v5.333h21.334v-5.333h-4v2.666h-2.667v-2.666zM8 17.333h2.667v2.667h-2.667v-2.667zM14.667 17.333h2.666v2.667h-2.666v-2.667zM21.333 17.333h2.667v2.667h-2.667v-2.667z"></path>
</symbol>
<symbol id="icon-moon" viewBox="0 0 32 32">
<path fill="none" stroke="#5f6775" style="stroke: var(--color3, #5f6775)" stroke-linejoin="round" stroke-linecap="round" stroke-miterlimit="4" stroke-width="2.2857" d="M28 17.053c-0.584 6.134-5.71 10.893-11.947 10.893-6.627 0-11.998-5.372-11.998-11.998 0-6.237 4.759-11.363 10.845-11.944l0.048-0.004c-1.141 1.53-1.827 3.458-1.827 5.546 0 5.155 4.179 9.333 9.333 9.333 2.088 0 4.016-0.686 5.571-1.844l-0.025 0.018z"></path>
</symbol>
<symbol id="icon-sun" viewBox="0 0 32 32">
<path fill="none" stroke="#4b48db" style="stroke: var(--color4, #4b48db)" stroke-linejoin="round" stroke-linecap="round" stroke-miterlimit="4" stroke-width="2.2857" d="M16 1.778v2.586M16 27.636v2.586M5.943 5.943l1.836 1.836M24.224 24.224l1.836 1.836M1.778 16h2.586M27.636 16h2.586M5.943 26.059l1.836-1.836M24.222 7.778l1.836-1.836M22.466 16c0 3.57-2.894 6.465-6.465 6.465s-6.465-2.894-6.465-6.465v0c0-3.57 2.894-6.465 6.465-6.465s6.465 2.894 6.465 6.465v0z"></path>
</symbol>
</defs>
<symbol id="icon-read" viewBox="0 0 24 24">
<path d="M21 4v13h-6c-0.728 0-1.412 0.195-2 0.535v-10.535c0-0.829 0.335-1.577 0.879-2.121s1.292-0.879 2.121-0.879zM11 17.535c-0.588-0.34-1.272-0.535-2-0.535h-6v-13h5c0.829 0 1.577 0.335 2.121 0.879s0.879 1.292 0.879 2.121zM22 2h-6c-1.38 0-2.632 0.561-3.536 1.464-0.167 0.167-0.322 0.346-0.464 0.536-0.142-0.19-0.297-0.369-0.464-0.536-0.904-0.903-2.156-1.464-3.536-1.464h-6c-0.552 0-1 0.448-1 1v15c0 0.552 0.448 1 1 1h7c0.553 0 1.051 0.223 1.414 0.586s0.586 0.861 0.586 1.414c0 0.552 0.448 1 1 1s1-0.448 1-1c0-0.553 0.223-1.051 0.586-1.414s0.861-0.586 1.414-0.586h7c0.552 0 1-0.448 1-1v-15c0-0.552-0.448-1-1-1z"></path>
</symbol>
<symbol id="icon-favorite" viewBox="0 0 28 28">
<path d="M26 9.312c0-4.391-2.969-5.313-5.469-5.313-2.328 0-4.953 2.516-5.766 3.484-0.375 0.453-1.156 0.453-1.531 0-0.812-0.969-3.437-3.484-5.766-3.484-2.5 0-5.469 0.922-5.469 5.313 0 2.859 2.891 5.516 2.922 5.547l9.078 8.75 9.063-8.734c0.047-0.047 2.938-2.703 2.938-5.563zM28 9.312c0 3.75-3.437 6.891-3.578 7.031l-9.734 9.375c-0.187 0.187-0.438 0.281-0.688 0.281s-0.5-0.094-0.688-0.281l-9.75-9.406c-0.125-0.109-3.563-3.25-3.563-7 0-4.578 2.797-7.313 7.469-7.313 2.734 0 5.297 2.156 6.531 3.375 1.234-1.219 3.797-3.375 6.531-3.375 4.672 0 7.469 2.734 7.469 7.313z"></path>
</symbol>
<symbol id="icon-favorite1" viewBox="0 0 28 28">
<path d="M26 9.312c0-4.391-2.969-5.313-5.469-5.313-2.328 0-4.953 2.516-5.766 3.484-0.375 0.453-1.156 0.453-1.531 0-0.812-0.969-3.437-3.484-5.766-3.484-2.5 0-5.469 0.922-5.469 5.313 0 2.859 2.891 5.516 2.922 5.547l9.078 8.75 9.063-8.734c0.047-0.047 2.938-2.703 2.938-5.563zM28 9.312c0 3.75-3.437 6.891-3.578 7.031l-9.734 9.375c-0.187 0.187-0.438 0.281-0.688 0.281s-0.5-0.094-0.688-0.281l-9.75-9.406c-0.125-0.109-3.563-3.25-3.563-7 0-4.578 2.797-7.313 7.469-7.313 2.734 0 5.297 2.156 6.531 3.375 1.234-1.219 3.797-3.375 6.531-3.375 4.672 0 7.469 2.734 7.469 7.313z"></path>
</symbol>
<symbol id="icon-location" viewBox="0 0 32 32">
<path d="M16 2.001c-6.072 0.007-10.992 4.927-11 10.998v0.001c0 0.005 0 0.011 0 0.017 0 2.486 0.833 4.777 2.236 6.61l-0.019-0.026s0.3 0.395 0.348 0.45l8.435 9.95 8.439-9.953c0.044-0.053 0.345-0.447 0.345-0.447l0.001-0.004c1.383-1.806 2.216-4.098 2.216-6.583 0-0.005 0-0.009 0-0.014v0.001c-0.007-6.072-4.928-10.993-11-11h-0.001zM16 17c-2.209 0-4-1.791-4-4s1.791-4 4-4v0c2.209 0 4 1.791 4 4s-1.791 4-4 4v0z"></path>
</symbol>
<symbol id="icon-menu" viewBox="0 0 32 32">
<path d="M6.4 11.734v-2.134h19.2v2.134h-19.2zM6.4 17.066h19.2v-2.133h-19.2v2.133zM6.4 22.4h19.2v-2.134h-19.2v2.134z"></path>
</symbol>
<symbol id="icon-close-menu" viewBox="0 0 32 32">
<path d="M23.734 10.304l-1.504-1.504-5.963 5.962-5.962-5.962-1.504 1.504 5.962 5.962-5.962 5.963 1.504 1.504 5.962-5.963 5.963 5.963 1.504-1.504-5.963-5.963 5.963-5.962z"></path>
</symbol>
<symbol id="icon-tick" viewBox="0 0 32 32">
<path d="M28.779 6.389c-0.288 0.009-0.546 0.131-0.732 0.323l-16.313 16.313-6.713-6.713c-0.195-0.209-0.473-0.339-0.78-0.339-0.589 0-1.067 0.478-1.067 1.067 0 0.308 0.13 0.585 0.339 0.78l0.001 0.001 7.467 7.467c0.193 0.193 0.459 0.312 0.754 0.312s0.561-0.119 0.754-0.312v0l17.067-17.067c0.199-0.194 0.323-0.465 0.323-0.765 0-0.589-0.478-1.067-1.067-1.067-0.011 0-0.022 0-0.033 0l0.002-0z"></path>
</symbol>
<symbol id="icon-heart-full" viewBox="0 0 32 32">
<path d="M9.332 4c-3.68 0-6.666 2.954-6.666 6.6 0 2.942 1.166 9.926 12.65 16.986 0.195 0.12 0.43 0.191 0.683 0.191s0.488-0.071 0.689-0.195l-0.006 0.003c11.484-7.060 12.65-14.044 12.65-16.986 0-3.646-2.984-6.6-6.666-6.6-3.68 0-6.666 4-6.666 4s-2.986-4-6.668-4z"></path>
</symbol>
<symbol id="icon-heart-empty" viewBox="0 0 32 32">
<path d="M26 9.312c0-4.391-2.969-5.313-5.469-5.313-2.328 0-4.953 2.516-5.766 3.484-0.375 0.453-1.156 0.453-1.531 0-0.812-0.969-3.437-3.484-5.766-3.484-2.5 0-5.469 0.922-5.469 5.313 0 2.859 2.891 5.516 2.922 5.547l9.078 8.75 9.063-8.734c0.047-0.047 2.938-2.703 2.938-5.563zM28 9.312c0 3.75-3.437 6.891-3.578 7.031l-9.734 9.375c-0.187 0.187-0.438 0.281-0.688 0.281s-0.5-0.094-0.688-0.281l-9.75-9.406c-0.125-0.109-3.563-3.25-3.563-7 0-4.578 2.797-7.313 7.469-7.313 2.734 0 5.297 2.156 6.531 3.375 1.234-1.219 3.797-3.375 6.531-3.375 4.672 0 7.469 2.734 7.469 7.313z"></path>
</symbol>
<symbol id="icon-heart" viewBox="0 0 32 32">
<path stroke-linejoin="round" stroke-linecap="round" stroke-miterlimit="4" stroke-width="1.7778" d="M27.788 6.147c-0.681-0.681-1.49-1.222-2.38-1.591s-1.844-0.559-2.807-0.559c-0.963 0-1.917 0.19-2.807 0.559s-1.699 0.909-2.38 1.591l-1.413 1.413-1.413-1.413c-1.376-1.376-3.241-2.148-5.187-2.148s-3.811 0.773-5.187 2.148c-1.376 1.376-2.148 3.241-2.148 5.187s0.773 3.811 2.148 5.187l11.787 11.787 11.787-11.787c0.681-0.681 1.222-1.49 1.591-2.38s0.558-1.844 0.558-2.807-0.19-1.917-0.558-2.807c-0.369-0.89-0.909-1.699-1.591-2.38v0z"></path>
</symbol>
<symbol id="icon-home" viewBox="0 0 32 32">
<path stroke-linejoin="round" stroke-linecap="round" stroke-miterlimit="4" stroke-width="1.7778" d="M4 12l12-9.333 12 9.333v14.667c0 0.707-0.281 1.386-0.781 1.886s-1.178 0.781-1.886 0.781h-18.667c-0.707 0-1.386-0.281-1.886-0.781s-0.781-1.178-0.781-1.886v-14.667z"></path>
<path stroke-linejoin="round" stroke-linecap="round" stroke-miterlimit="4" stroke-width="1.7778" d="M12 29.333v-13.333h8v13.333"></path>
</symbol>
<symbol id="icon-chmyt" viewBox="0 0 64 32">
<path fill="#fefefe" style="fill: var(--color1, #fefefe)" d="M0 0c0 6.468 0 12.937 0 19.405 4.198 0 8.397 0 12.595 0 0 4.198 0 8.397 0 12.595 12.766 0 25.532 0 38.298 0 0-4.198 0-8.397 0-12.595 4.198 0 8.397 0 12.595 0 0-6.468 0-12.937 0-19.405-21.163 0-42.325 0-63.488 0v0z"></path>
<path fill="#fdd901" style="fill: var(--color2, #fdd901)" d="M40.471 28.154h6.576v-5.857h-6.576z"></path>
<path fill="#0068ff" style="fill: var(--color3, #0068ff)" d="M40.471 22.298h6.576v-5.857h-6.576z"></path>
<path fill="#000" style="fill: var(--color4, #000)" d="M3.846 15.559h11.714v-11.714h-11.714v11.714zM16.441 15.559h43.202v-11.714h-43.202v11.714zM39.589 28.154v-11.714h-23.148v11.714h23.148zM40.471 16.441v11.714h6.576v-11.714h-6.576zM47.488 29.036h-31.929v-12.595h-12.595v-13.477h57.56v13.477h-12.595v12.595h-0.441z"></path>
<path fill="#000" style="fill: var(--color4, #000)" d="M23.174 10.737v0.332c0 0.199-0.020 0.39-0.061 0.572-0.043 0.184-0.118 0.345-0.225 0.484s-0.254 0.251-0.438 0.334c-0.184 0.084-0.42 0.126-0.708 0.126-0.002 0-0.002 0-0.002 0.002-0.295 0-0.536-0.043-0.722-0.126s-0.331-0.199-0.438-0.343c-0.107-0.143-0.179-0.313-0.218-0.506-0.041-0.191-0.061-0.392-0.061-0.604v-2.605c0-0.214 0.020-0.418 0.061-0.608 0.039-0.191 0.111-0.358 0.218-0.501s0.252-0.257 0.438-0.343c0.186-0.083 0.425-0.126 0.713-0.126l0.005-0.004c0.293 0 0.531 0.043 0.717 0.126 0.186 0.086 0.334 0.199 0.44 0.341s0.179 0.304 0.22 0.488c0.041 0.184 0.061 0.377 0.061 0.576v0.321h-0.931v-0.317c0-0.084-0.007-0.167-0.018-0.248s-0.036-0.154-0.070-0.221c-0.034-0.064-0.086-0.118-0.152-0.159s-0.154-0.060-0.263-0.060c-0.116 0-0.207 0.021-0.272 0.062-0.066 0.043-0.118 0.099-0.154 0.165-0.036 0.069-0.059 0.148-0.070 0.236s-0.016 0.18-0.016 0.276v2.596c0 0.092 0.005 0.182 0.014 0.27s0.032 0.167 0.068 0.236c0.034 0.071 0.086 0.126 0.152 0.167s0.157 0.062 0.275 0.062c0.107 0 0.193-0.019 0.259-0.056s0.118-0.086 0.157-0.148c0.036-0.062 0.061-0.135 0.075-0.216 0.011-0.081 0.018-0.167 0.018-0.255v-0.328h0.931zM25.721 6.83c0-0.002 0.002-0.004 0.005-0.004 0.293 0 0.531 0.043 0.718 0.126 0.186 0.086 0.331 0.199 0.438 0.343s0.179 0.313 0.22 0.503c0.039 0.193 0.059 0.394 0.059 0.606v2.605c0 0.214-0.020 0.418-0.059 0.608-0.041 0.193-0.113 0.36-0.22 0.503s-0.254 0.257-0.44 0.341c-0.189 0.084-0.427 0.126-0.715 0.126 0 0-0.002 0-0.005-0.002v0.002c-0.293 0-0.531-0.043-0.717-0.126s-0.331-0.199-0.438-0.343c-0.107-0.143-0.182-0.313-0.22-0.506-0.041-0.191-0.061-0.392-0.061-0.604v-2.605c0-0.214 0.020-0.418 0.061-0.608 0.039-0.191 0.114-0.358 0.223-0.501 0.107-0.143 0.254-0.257 0.44-0.343 0.186-0.083 0.425-0.126 0.713-0.126v0.004zM25.721 11.74c0.002 0 0.007 0 0.009 0.002s0.005 0.002 0.007 0.002c0.111-0.002 0.198-0.026 0.263-0.066s0.116-0.096 0.15-0.165c0.034-0.066 0.057-0.146 0.068-0.233s0.016-0.18 0.016-0.274v-2.596c0-0.092-0.005-0.182-0.014-0.27s-0.032-0.167-0.066-0.236c-0.034-0.069-0.086-0.124-0.152-0.167-0.066-0.041-0.159-0.062-0.277-0.062-0.007 0-0.014-0.002-0.018-0.004-0.111 0.002-0.198 0.026-0.263 0.066-0.066 0.043-0.113 0.099-0.148 0.165s-0.057 0.146-0.068 0.234c-0.011 0.088-0.016 0.18-0.016 0.274v2.596c0 0.092 0.005 0.182 0.016 0.27 0.009 0.088 0.032 0.167 0.066 0.236 0.034 0.071 0.086 0.126 0.152 0.167s0.159 0.062 0.275 0.062v0zM29.27 8.342l0.059 4.173h-0.876v-5.612h1.201l0.783 3.41 0.786-3.41h1.197v5.613h-0.876l0.054-4.126-0.758 3.425h-0.801l-0.767-3.473zM33.819 12.515v-5.612h2.516v0.848h-1.587v1.485h1.317v0.848h-1.317v1.587h1.587v0.844h-2.516zM41.479 10.527c0-0.077-0.011-0.15-0.032-0.216-0.023-0.066-0.055-0.124-0.098-0.173s-0.1-0.088-0.166-0.116c-0.066-0.028-0.143-0.041-0.232-0.041h-0.497v1.686h0.5c0.086 0 0.161-0.009 0.227-0.026 0.066-0.015 0.12-0.045 0.168-0.088 0.045-0.043 0.080-0.103 0.102-0.178 0.020-0.075 0.029-0.171 0.027-0.289v-0.559zM41.413 8.25c0-0.081-0.009-0.156-0.027-0.223s-0.048-0.122-0.086-0.171c-0.039-0.047-0.091-0.083-0.152-0.109-0.064-0.026-0.141-0.039-0.232-0.039h-0.461v1.476h0.395c0.107 0 0.195-0.013 0.27-0.036 0.073-0.024 0.132-0.060 0.177-0.109s0.077-0.109 0.095-0.184c0.018-0.073 0.027-0.161 0.025-0.266l-0.005-0.338zM42.405 11.072c0 0.259-0.030 0.478-0.086 0.66-0.059 0.182-0.148 0.332-0.268 0.448s-0.27 0.199-0.45 0.253c-0.179 0.054-0.393 0.079-0.638 0.079h-1.435v-5.608h1.415c0.241 0 0.45 0.028 0.624 0.086s0.32 0.141 0.436 0.251c0.116 0.109 0.2 0.244 0.257 0.401 0.057 0.159 0.084 0.338 0.084 0.54v0.328c0 0.293-0.043 0.525-0.129 0.696-0.086 0.173-0.227 0.287-0.422 0.341 0.191 0.049 0.341 0.161 0.45 0.33 0.109 0.171 0.164 0.39 0.164 0.653v0.544zM44.293 6.899h1.251l1.017 5.617h-0.94l-0.152-0.992h-1.11l-0.15 0.992h-0.933l1.017-5.617zM44.484 10.722h0.865l-0.431-2.843-0.434 2.843zM50.415 10.737v0.332c0 0.199-0.020 0.39-0.061 0.572-0.043 0.184-0.118 0.345-0.225 0.484s-0.254 0.251-0.438 0.334-0.42 0.126-0.708 0.126c-0.002 0-0.002 0-0.002 0.002-0.295 0-0.536-0.043-0.722-0.126s-0.331-0.199-0.438-0.343c-0.107-0.143-0.179-0.313-0.218-0.506-0.041-0.191-0.061-0.392-0.061-0.604v-2.605c0-0.214 0.020-0.418 0.061-0.608 0.039-0.191 0.111-0.358 0.218-0.501s0.252-0.257 0.438-0.343c0.186-0.083 0.425-0.126 0.713-0.126l0.005-0.004c0.293 0 0.531 0.043 0.718 0.126 0.186 0.086 0.334 0.199 0.44 0.341s0.179 0.304 0.22 0.488c0.041 0.184 0.061 0.377 0.061 0.576v0.321h-0.931v-0.317c0-0.084-0.007-0.167-0.018-0.248s-0.036-0.154-0.070-0.221c-0.034-0.064-0.086-0.118-0.152-0.159s-0.154-0.060-0.263-0.060c-0.116 0-0.207 0.021-0.272 0.062-0.066 0.043-0.118 0.099-0.154 0.165-0.036 0.069-0.059 0.148-0.070 0.236s-0.016 0.18-0.016 0.276v2.596c0 0.092 0.005 0.182 0.014 0.27s0.032 0.167 0.068 0.236c0.034 0.071 0.086 0.126 0.152 0.167s0.157 0.062 0.275 0.062c0.107 0 0.193-0.019 0.259-0.056s0.118-0.086 0.157-0.148c0.036-0.062 0.061-0.135 0.075-0.216 0.011-0.081 0.018-0.167 0.018-0.255v-0.328h0.931zM51.665 12.515v-5.612h0.926v2.358h0.341l0.872-2.358h0.99l-0.995 2.742 1.072 2.871h-0.99l-0.922-2.406h-0.368v2.406h-0.926z"></path>
<path fill="#000" style="fill: var(--color4, #000)" d="M21.076 19.527h1.251l1.017 5.617h-0.94l-0.152-0.992h-1.11l-0.15 0.992h-0.933l1.017-5.617zM21.267 23.351h0.865l-0.431-2.843-0.434 2.843zM24.453 25.144v-5.613h0.926v4.775h1.517v0.838h-2.443zM27.909 25.144v-5.613h0.929v5.613h-0.929zM33.164 19.527l-1.029 5.617h-1.251l-1.029-5.617h0.933l0.72 4.653 0.72-4.653h0.935zM34.173 25.144v-5.613h2.516v0.848h-1.587v1.485h1.317v0.848h-1.317v1.587h1.587v0.844h-2.516z"></path>
<path fill="#000" style="fill: var(--color4, #000)" d="M9.351 12.652l-2.4-3.183c-0.28-0.371-0.396-0.819-0.355-1.253 0.040-0.435 0.237-0.854 0.581-1.168 0.048-0.043 0.098-0.085 0.151-0.124 0.37-0.271 0.814-0.38 1.243-0.338 0.42 0.042 0.825 0.23 1.132 0.555 0.307-0.325 0.712-0.513 1.132-0.555 0.428-0.043 0.872 0.067 1.243 0.338 0.053 0.039 0.104 0.080 0.151 0.124 0.344 0.313 0.54 0.733 0.581 1.168 0.040 0.434-0.075 0.881-0.355 1.253l-2.752 3.649-0.351-0.466zM7.653 8.938l2.049 2.717 2.049-2.717c0.144-0.191 0.204-0.421 0.183-0.643-0.021-0.221-0.121-0.435-0.298-0.596-0.027-0.024-0.053-0.046-0.079-0.065-0.189-0.138-0.417-0.194-0.637-0.172-0.219 0.022-0.43 0.122-0.588 0.295-0.024 0.026-0.045 0.052-0.065 0.079l-0.565 0.772-0.565-0.772c-0.020-0.027-0.041-0.053-0.065-0.079-0.158-0.173-0.369-0.273-0.588-0.295-0.22-0.022-0.448 0.034-0.637 0.172-0.026 0.019-0.053 0.041-0.079 0.065-0.177 0.161-0.278 0.375-0.298 0.596-0.021 0.222 0.039 0.452 0.183 0.643z"></path>
</symbol>
<symbol id="icon-prytula" viewBox="0 0 32 32">
<path fill="#001e61" style="fill: var(--color5, #001e61)" d="M13.268 0v26.571h5.463v-21.771l7.805-0.032v8.032h5.463v-12.8h-18.732z"></path>
<path fill="#001e61" style="fill: var(--color5, #001e61)" d="M26.536 32.001l5.464-0v-19.428h-5.464v19.429z"></path>
<path fill="#f90" style="fill: var(--color6, #f90)" d="M18.732 12.802v5.6h13.268v-5.6h-13.268z"></path>
<path fill="#f90" style="fill: var(--color6, #f90)" d="M5.463 26.402v-8h7.805v-5.6h-13.268v19.2h26.537v-5.6h-21.073z"></path>
</symbol>
<symbol id="icon-u24" viewBox="0 0 338 32">
<path d="M99.662 4.917h16.922v26.091h-16.922v-26.091zM29.816 15.949c0 3.727-2.055 5.481-6.447 5.481s-6.449-1.752-6.449-5.481v-11.033h-16.92v11.667c0 10.921 6.111 14.796 23.369 14.796s23.369-3.882 23.369-14.796v-11.667h-16.922v11.033zM118.373 14.609h14.158v16.399h16.922v-16.399h14.159v-9.692h-45.24v9.692zM80.804 18.448l-13.232-13.531h-18.665v26.091h16.696v-13.531l13.22 13.531h18.674v-26.091h-16.694v13.531zM294.703 10.436c0-7.118-6.298-10.436-19.566-10.436-14.312 0-20.35 3.802-20.35 12.896h13.305c0-3.131 2.199-4.25 6.562-4.25 4.247 0 5.59 0.747 5.59 1.902 0 1.528-0.485 1.528-11.19 4.024-11.85 2.795-15.529 8.313-15.529 13.643v2.795h40.215v-8.47h-23.522c1.418-1.343 5.442-1.715 14.35-3.426 5.924-1.114 10.135-3.165 10.135-8.678zM165.41 31.008h38.501v-7.783h-22.321v-2.199h15.878v-6.12h-15.878v-2.199h22.326v-7.79h-38.506v26.091zM337.6 17.144v8.721h-6.038v5.143h-13.75v-5.143h-22.698v-8.806l16.287-16.027h20.162v16.102l6.036 0.009zM317.81 8.571l-8.678 8.573h8.678v-8.573zM254.078 17.973c0 8.758-5.517 13.044-16.886 13.044h-31.119v-26.1h31.119c11.369 0 16.886 4.287 16.886 13.056zM237.567 17.973c0-2.946-1.642-4.325-5.070-4.325h-9.914v8.648h9.914c3.428-0.009 5.070-1.388 5.070-4.323z"></path>
</symbol>
</svg>
